<svg xmlns="http://www.w3.org/2000/svg" width="300" height="300" version="1.0" viewBox="0 0 200 200"><path d="M83.8 9.5C26.4 20.4-6 78.4 14.4 134c2.5 6.7 7.9 15.9 14 23.6 33.1 42.5 98.2 46 136.7 7.5 38.5-38.5 35-103.6-7.5-136.7-16.8-13.2-32.8-19.1-54.1-19.9-8.1-.3-14.5 0-19.7 1zm29.2 3c36.6 5.5 64.7 31.5 73.7 68.1 2.4 10 2.3 29.7-.1 39.4-8.6 33.6-33 58-66.6 66.6-9.7 2.4-29.4 2.5-39.4.1-26.2-6.5-47.2-22.7-59-45.6-13.3-26-13.7-53.7-1.1-79.8 12.9-26.6 38.1-44.8 68.1-49.2 8.9-1.3 14-1.2 24.4.4z"/><path d="M92.5 18c-2.2 2.4-1.7 6.7 2 18.7 2.6 8.5 4.2 10.2 8.5 8.8 2.2-.7 3.3-3.8 5.7-17.2 2.1-11.7 1.7-12.3-7.7-12.3-5.4 0-7 .4-8.5 2zM71.3 23.3C67.5 25.5 66 27 66 28.6 66 31.1 83.1 49 85.5 49c2.8 0 5.5-2 5.5-4 0-3.6-6.1-21.1-8.1-23.1-2.6-2.6-5.5-2.3-11.6 1.4zM118.1 21.9c-1.1 1.1-3.5 6.8-5.5 12.8l-3.5 10.8 2 1.7c1.2 1 2.9 1.8 3.8 1.8C117 49 135 31 135 28.9c0-2-2.4-4.1-7.7-6.8-5.2-2.6-6.8-2.6-9.2-.2zM50.6 36.9c-3 3-4.7 5.5-4.3 6.4.6 1.6 15.3 11.6 21.1 14.3 3.5 1.7 3.6 1.7 6-.6 2.4-2.1 2.4-2.4 1-5.2-2.7-5.3-10.6-17.3-12.2-18.6-3.2-2.5-6.6-1.4-11.6 3.7zM137.8 34.3c-1.1 1.2-4.4 6.3-7.4 11.2l-5.4 8.9 2.4 2.4c1.7 1.7 3 2.2 4.5 1.7 3.8-1.2 23.1-14.4 23.1-15.8 0-.8-2.2-3.5-5-6.1-5.6-5.2-9-5.9-12.2-2.3zM37.2 47.8c-4.1 4.1-7.4 9.3-6.8 10.7.7 1.9 22.2 12.5 25.2 12.5 2 0 5.4-2.8 5.4-4.5 0-1-6.1-8.5-12.4-15.3-5.3-5.6-8.3-6.5-11.4-3.4zM154 49.2c-4.9 5-14 16.4-14 17.5 0 1.6 3.5 4.3 5.6 4.3 2.9 0 24.3-10.7 25-12.5.6-1.4-2.7-6.6-6.8-10.7-2.7-2.7-6.2-2.2-9.8 1.4zM25.1 66.7C22.5 68.9 20 79.4 21.6 81c1.3 1.3 24.8 3.3 27.8 2.4 2.5-.8 3.6-2.2 3.6-5 0-1.7-2.3-3.3-10.9-7.7-11.7-6.2-13.8-6.6-17-4zM158.8 70.7c-9.9 5.1-10.8 5.9-10.8 8.5 0 4.4 3.1 5.1 17.8 3.9 6.9-.6 13-1.5 13.6-2.1 1.6-1.6-.9-12.1-3.5-14.3-3.2-2.6-5.5-2.1-17.1 4zM69.2 68.7c-.7.3-1.9 1.7-2.7 3.3l-1.4 2.8 36 29.8c19.8 16.5 36.5 30 37.2 30.2 1.9.4 4.6-2 4.9-4.4.2-1.7-7.1-8.3-36-32.3-19.9-16.5-36.3-30.1-36.5-30-.1 0-.8.3-1.5.6zM115.8 79.3c-14.7 10.3-15.7 11.2-14.2 12.8 1.5 1.6 2.4 1.1 15.2-8.3 17.1-12.7 17.7-13.2 16-14.5-1-.8-5.3 1.7-17 10zM122.1 85.2c-7.8 6.1-14 11.6-13.8 12.1.2.6 1 1.5 1.9 2 2.3 1.5 29.3-22 27.7-23.9-.6-.8-1.3-1.4-1.4-1.4-.1 0-6.6 5-14.4 11.2zM21.2 88.6c-1.9 1.3-2.2 2.5-2.2 7.8 0 9.1.5 9.3 14.2 6.1 13-3.1 15.8-4.5 15.8-8 0-2.7-2.2-3.6-14.5-5.5-3.8-.6-7.9-1.3-9.1-1.5-1.1-.3-3 .2-4.2 1.1zM164.5 89.7c-10.4 1.5-12.5 2.4-12.5 5.4 0 2.7 3.3 4.4 14.3 7.4 13.4 3.6 14 3.5 15-4 .7-5.7.6-6.1-1.8-8.3-1.5-1.2-3.1-2.2-3.8-2.1-.7.1-5.7.8-11.2 1.6zM80 104.6c-17 12.3-17.7 13.3-19 25.6-.9 9-2.2 11.2-7.1 11-3.8-.1-10.7 4.2-12 7.6-.5 1.3-1.6 2.3-2.6 2.1-3.9-.3-4.6 0-3.3 1.6 2.5 3.1 4.8 2.7 11.2-1.8 3.5-2.4 6.8-4.2 7.5-4 .6.2 2.7-.3 4.7-1.1 2.7-1.1 4.2-2.7 5.6-5.8 1.1-2.4 2-5.1 2-6 0-.9 1.8-3.8 4-6.3 2.7-3.2 4-5.6 4-7.6 0-3.3 1.4-4.9 12.3-13.6 6.6-5.3 6.8-5.6 5.1-7.4-.9-1-1.8-1.9-1.8-1.9-.1 0-4.8 3.5-10.6 7.6zm-9.2 17.8c.6 2.9-1.5 4.3-3.5 2.4-1.4-1.4-1.4-2-.3-3.3 1.6-1.9 3.4-1.5 3.8.9z"/><path d="M87.9 112.2c-7.6 6-11 9.3-12.5 12.5l-2.1 4.3h2.6c1.9 0 6.1-3 14.9-10.6 6.7-5.8 12-10.9 11.7-11.5-.4-.5-1.4-1.3-2.4-1.9-1.5-.8-3.8.5-12.2 7.2zM146.1 122.7c-2.1 2.6-2.7 4-2 4.9 2.3 2.8-3.2 9.4-6.7 8-1.4-.5-5.4 3.2-7.8 7.2-.8 1.4 1.1 9.3 2.3 9.1.7 0 26.4-30.7 26.9-32 .2-.5-1.9-.9-4.6-.9-4.6 0-5.3.3-8.1 3.7zM146.5 136.8l-13.8 16.6 5.4 4.8c3 2.6 5.7 4.8 6 4.8.5 0 20.5-23.4 26.3-30.8 1.9-2.4 1.9-2.5-.1-4.1-1.2-.9-3.8-3-6-4.8l-3.9-3.2-13.9 16.7zM49.5 124.4c-3.2 1.4-5.5 5.1-5.5 8.9 0 1.5-1.9 3.5-6 6.5-5.8 4.2-6.9 6.2-5.1 9 .6 1 1 1 2.1-.3.7-.8.9-1.5.5-1.5s-.2-.6.5-1.4c.6-.8 1.8-1.2 2.6-.9.8.3 3.4-1.1 5.8-3.1 3.7-3 4.4-4.1 4.3-7-.1-4.9 1.8-6.8 6.7-6.4 3.6.2 4 0 4.7-2.5.7-2.6.6-2.7-3.4-2.7-2.3.1-5.6.7-7.2 1.4zM103.5 138.5c1.9 4.5 1.9 8.5-.1 11.3-3.1 4.5-6.2 2.1-7.1-5.7-.3-2.8-.9-5.1-1.3-5.1s-1.5 1.6-2.5 3.6c-1.6 3.5-1.6 4.9.1 13.1.5 2.5.2 3.3-1.5 4.2-3 1.7-6.5-2-5.7-6 .6-3.3-.4-3.7-2.6-1.2-2.5 2.8-3 5.9-1.8 10.5 2.7 9.9 10.2 15.3 20.6 14.6 5.2-.3 7-.9 10.1-3.5 4.8-3.8 7-7.6 7.8-13.3l.6-4.5-1.6 2.7c-1.6 2.9-5.7 3.9-7.1 1.7-.4-.6-.1-3.5.6-6.5 1.1-4.3 1.1-5.9 0-8.5-1.6-3.7-5.5-8.5-8.1-9.9-1.7-1-1.7-.8-.4 2.5z"/></svg>